# xmcd
#
# Track frame offsets:
#	150
#	4548
#	14075
#	32352
#	49760
#	59663
#	71792
#	87770
#	102345
#	113780
#	127420
#	134986
#	143345
#	162680
#	171034
#	182241
#	196327
#	207588
#	221754
#	238356
#	251547
#	270490
#
# Disc length: 3708 seconds
#
# Revision: 0
# Processed by: cddbd v1.5PL3 Copyright (c) Steve Scherf et al.
# Submitted via: dBpowerAMP V4.0
#
DISCID=580e7a16
DTITLE=Alma Serrana - A Festa Ao Vivo
DYEAR=2004
DGENRE=Vanera
TTITLE0=Rédeas do Possante
TTITLE1=Festa do Alma
TTITLE2=Tô de Buzão
TTITLE3=Sou Louco Por Amor
TTITLE4=A Jiripoca Vai Piá
TTITLE5=Batidão da Paixão
TTITLE6=Pout-Pourri - De Cara Cheia - Pedaços de Mim
TTITLE7=Marvada - A Malvada
TTITLE8=Segura Essa Danada
TTITLE9=Alagados
TTITLE10=Vamo Namorá
TTITLE11=Prá Poder Te Namorar
TTITLE12=Dong Dong - No Toque da Guitarra
TTITLE13=Fio de Cabelo
TTITLE14=Paixão Proibida
TTITLE15=Bailanta no Povoado
TTITLE16=E Faz Que Vai
TTITLE17=O Amor é Assim
TTITLE18=Sem Seu Amor
TTITLE19=Cara Metage
TTITLE20=Recado Meu - Tchau Amor
TTITLE21=Vaneira do Tam Tam
EXTD=
EXTT0=
EXTT1=
EXTT2=
EXTT3=
EXTT4=
EXTT5=
EXTT6=
EXTT7=
EXTT8=
EXTT9=
EXTT10=
EXTT11=
EXTT12=
EXTT13=
EXTT14=
EXTT15=
EXTT16=
EXTT17=
EXTT18=
EXTT19=
EXTT20=
EXTT21=
PLAYORDER=
